<mxfile host="Electron" agent="Mozilla/5.0 (Windows NT 10.0; Win64; x64) AppleWebKit/537.36 (KHTML, like Gecko) draw.io/24.7.17 Chrome/128.0.6613.36 Electron/32.0.1 Safari/537.36" version="24.7.17" pages="2">
  <diagram name="Page-1" id="Rh2BAA_6xAQ1jac14FVW">
    <mxGraphModel dx="2074" dy="1196" grid="1" gridSize="10" guides="1" tooltips="1" connect="1" arrows="1" fold="1" page="1" pageScale="1" pageWidth="850" pageHeight="1100" math="0" shadow="0">
      <root>
        <mxCell id="0" />
        <mxCell id="1" parent="0" />
        <mxCell id="18PzKZXxT3rAA-Mr14-m-1" style="edgeStyle=orthogonalEdgeStyle;rounded=0;orthogonalLoop=1;jettySize=auto;html=1;exitX=0.5;exitY=1;exitDx=0;exitDy=0;entryX=0.5;entryY=0;entryDx=0;entryDy=0;" edge="1" parent="1" source="ed7zOYKlXT_o_wfqT2IM-1" target="ed7zOYKlXT_o_wfqT2IM-3">
          <mxGeometry relative="1" as="geometry" />
        </mxCell>
        <mxCell id="ed7zOYKlXT_o_wfqT2IM-1" value="start" style="ellipse;whiteSpace=wrap;html=1;fillColor=#f8cecc;strokeColor=#b85450;" vertex="1" parent="1">
          <mxGeometry x="340" y="40" width="120" height="80" as="geometry" />
        </mxCell>
        <mxCell id="18PzKZXxT3rAA-Mr14-m-3" style="edgeStyle=orthogonalEdgeStyle;rounded=0;orthogonalLoop=1;jettySize=auto;html=1;entryX=0.5;entryY=0;entryDx=0;entryDy=0;" edge="1" parent="1" source="ed7zOYKlXT_o_wfqT2IM-3" target="18PzKZXxT3rAA-Mr14-m-2">
          <mxGeometry relative="1" as="geometry" />
        </mxCell>
        <mxCell id="ed7zOYKlXT_o_wfqT2IM-3" value="input&amp;nbsp;&lt;div&gt;hours_worked&lt;/div&gt;" style="shape=parallelogram;perimeter=parallelogramPerimeter;whiteSpace=wrap;html=1;fixedSize=1;fillColor=#d5e8d4;strokeColor=#82b366;" vertex="1" parent="1">
          <mxGeometry x="340" y="170" width="120" height="60" as="geometry" />
        </mxCell>
        <mxCell id="MS6bRsGqpDDQs4_ycoHY-1" style="edgeStyle=orthogonalEdgeStyle;rounded=0;orthogonalLoop=1;jettySize=auto;html=1;entryX=0.5;entryY=0;entryDx=0;entryDy=0;" edge="1" parent="1" source="18PzKZXxT3rAA-Mr14-m-2" target="18PzKZXxT3rAA-Mr14-m-4">
          <mxGeometry relative="1" as="geometry" />
        </mxCell>
        <mxCell id="18PzKZXxT3rAA-Mr14-m-2" value="input&amp;nbsp;&lt;div&gt;material_cost&lt;/div&gt;" style="shape=parallelogram;perimeter=parallelogramPerimeter;whiteSpace=wrap;html=1;fixedSize=1;fillColor=#e1d5e7;strokeColor=#9673a6;" vertex="1" parent="1">
          <mxGeometry x="340" y="270" width="120" height="60" as="geometry" />
        </mxCell>
        <mxCell id="MS6bRsGqpDDQs4_ycoHY-3" style="edgeStyle=orthogonalEdgeStyle;rounded=0;orthogonalLoop=1;jettySize=auto;html=1;entryX=0.5;entryY=0;entryDx=0;entryDy=0;" edge="1" parent="1" source="18PzKZXxT3rAA-Mr14-m-4" target="MS6bRsGqpDDQs4_ycoHY-2">
          <mxGeometry relative="1" as="geometry" />
        </mxCell>
        <mxCell id="18PzKZXxT3rAA-Mr14-m-4" value="labor_cost = hours_worked*30" style="rounded=0;whiteSpace=wrap;html=1;fillColor=#e1d5e7;strokeColor=#9673a6;" vertex="1" parent="1">
          <mxGeometry x="340" y="390" width="120" height="60" as="geometry" />
        </mxCell>
        <mxCell id="nLQxCyjc2v1MY6qoZkGC-1" style="edgeStyle=orthogonalEdgeStyle;rounded=0;orthogonalLoop=1;jettySize=auto;html=1;exitX=0.5;exitY=1;exitDx=0;exitDy=0;entryX=0.5;entryY=0;entryDx=0;entryDy=0;" edge="1" parent="1" source="MS6bRsGqpDDQs4_ycoHY-2" target="MS6bRsGqpDDQs4_ycoHY-4">
          <mxGeometry relative="1" as="geometry" />
        </mxCell>
        <mxCell id="MS6bRsGqpDDQs4_ycoHY-2" value="total_material_cost =&lt;div&gt;material_cost*1.2&lt;/div&gt;" style="rounded=0;whiteSpace=wrap;html=1;fillColor=#e1d5e7;strokeColor=#9673a6;" vertex="1" parent="1">
          <mxGeometry x="340" y="490" width="120" height="60" as="geometry" />
        </mxCell>
        <mxCell id="nLQxCyjc2v1MY6qoZkGC-3" style="edgeStyle=orthogonalEdgeStyle;rounded=0;orthogonalLoop=1;jettySize=auto;html=1;exitX=0.5;exitY=1;exitDx=0;exitDy=0;entryX=0.5;entryY=0;entryDx=0;entryDy=0;" edge="1" parent="1" source="MS6bRsGqpDDQs4_ycoHY-4" target="nLQxCyjc2v1MY6qoZkGC-2">
          <mxGeometry relative="1" as="geometry" />
        </mxCell>
        <mxCell id="MS6bRsGqpDDQs4_ycoHY-4" value="total_job_cost =&lt;div&gt;total_material_cost +&lt;/div&gt;&lt;div&gt;labor_cost&lt;/div&gt;" style="rounded=0;whiteSpace=wrap;html=1;fillColor=#e1d5e7;strokeColor=#9673a6;" vertex="1" parent="1">
          <mxGeometry x="340" y="590" width="120" height="60" as="geometry" />
        </mxCell>
        <mxCell id="nLQxCyjc2v1MY6qoZkGC-6" style="edgeStyle=orthogonalEdgeStyle;rounded=0;orthogonalLoop=1;jettySize=auto;html=1;exitX=0.5;exitY=1;exitDx=0;exitDy=0;entryX=0.5;entryY=0;entryDx=0;entryDy=0;" edge="1" parent="1" source="nLQxCyjc2v1MY6qoZkGC-2" target="nLQxCyjc2v1MY6qoZkGC-5">
          <mxGeometry relative="1" as="geometry" />
        </mxCell>
        <mxCell id="nLQxCyjc2v1MY6qoZkGC-2" value="output -&amp;nbsp;&lt;div&gt;total_job_cost&lt;/div&gt;" style="shape=parallelogram;perimeter=parallelogramPerimeter;whiteSpace=wrap;html=1;fixedSize=1;fillColor=#d5e8d4;strokeColor=#82b366;" vertex="1" parent="1">
          <mxGeometry x="340" y="690" width="120" height="60" as="geometry" />
        </mxCell>
        <mxCell id="nLQxCyjc2v1MY6qoZkGC-5" value="end" style="ellipse;whiteSpace=wrap;html=1;fillColor=#f8cecc;strokeColor=#b85450;" vertex="1" parent="1">
          <mxGeometry x="340" y="790" width="120" height="80" as="geometry" />
        </mxCell>
      </root>
    </mxGraphModel>
  </diagram>
  <diagram id="86KSvSdIIy1yqMtbRWvC" name="Page-2">
    <mxGraphModel dx="2074" dy="1196" grid="1" gridSize="10" guides="1" tooltips="1" connect="1" arrows="1" fold="1" page="1" pageScale="1" pageWidth="850" pageHeight="1100" math="0" shadow="0">
      <root>
        <mxCell id="0" />
        <mxCell id="1" parent="0" />
        <mxCell id="Hwe5ROi4ZVT4Usx97CtH-1" value="hours_worked - hours worked&lt;div&gt;material_cost - wholesale cost of materials&lt;/div&gt;&lt;div&gt;labor_cost - 30*hours_worked&lt;/div&gt;&lt;div&gt;total_material_cost - 120% of material_cost&lt;/div&gt;&lt;div&gt;total_job_cost - labor_cost*totat_material_cost&lt;/div&gt;" style="shape=process;whiteSpace=wrap;html=1;backgroundOutline=1;fillColor=#dae8fc;strokeColor=#6c8ebf;" vertex="1" parent="1">
          <mxGeometry x="20" y="40" width="480" height="470" as="geometry" />
        </mxCell>
      </root>
    </mxGraphModel>
  </diagram>
</mxfile>
